<?xml version="1.0" encoding="UTF-8"?>
<svg width="124px" height="88px" viewBox="0 0 124 88" version="1.1" xmlns="http://www.w3.org/2000/svg" xmlns:xlink="http://www.w3.org/1999/xlink">
    <!-- Generator: Sketch 41.2 (35397) - http://www.bohemiancoding.com/sketch -->
    <title>books</title>
    <desc>Created with Sketch.</desc>
    <defs></defs>
    <g id="Page-1" stroke="none" stroke-width="1" fill="none" fill-rule="evenodd">
        <g id="books" fill="#3488BD">
            <g id="library">
                <g id="Page-1">
                    <g id="library">
                        <path d="M119.854525,15.6110833 L119.854525,6.605325 C119.854525,6.23229167 119.693325,5.8776 119.412258,5.63218333 C119.131192,5.38676667 118.758417,5.27490833 118.388225,5.32528333 L112.138883,6.177525 L112.138883,1.46165 C112.138883,1.060975 111.953142,0.683033333 111.635908,0.43865 C111.318675,0.194008333 110.9056,0.110566667 110.518617,0.212608333 L61.982175,12.9871917 L13.445475,0.21235 C13.057975,0.110308333 12.6454167,0.19375 12.3281833,0.438391667 C12.01095,0.682775 11.8252083,1.06071667 11.8252083,1.46139167 L11.8252083,6.177525 L5.57586667,5.32528333 C5.20619167,5.27516667 4.8329,5.38676667 4.55183333,5.63218333 C4.27076667,5.87734167 4.10956667,6.23229167 4.10956667,6.605325 L4.10956667,15.6110833 C1.826675,15.714675 0,17.5989583 0,19.9069083 L0,83.3220583 C0,85.6961417 1.93155833,87.6277 4.30564167,87.6277 L61.9793333,87.6277 L61.980625,87.6277 L61.982175,87.6277 L61.983725,87.6277 L61.9850167,87.6277 L119.658708,87.6277 C122.032792,87.6277 123.96435,85.6961417 123.96435,83.3220583 L123.96435,19.9069083 C123.964092,17.5989583 122.137417,15.714675 119.854525,15.6110833 Z M117.271192,8.08531667 L117.271192,77.4912167 L82.7960917,82.1934 L111.176075,74.72395 C111.743633,74.5746333 112.139142,74.0615833 112.139142,73.4749083 L112.139142,8.78514167 L117.271192,8.08531667 Z M109.55555,72.4790333 L63.2735833,84.6599667 L63.2735833,15.3181333 L109.55555,3.1372 L109.55555,72.4790333 Z M14.4085417,3.1372 L55.5468333,13.9644667 L55.5468333,73.0887 C55.5468333,73.8019583 56.1252417,74.3803667 56.8385,74.3803667 C57.5517583,74.3803667 58.1301667,73.8019583 58.1301667,73.0887 L58.1301667,14.6444 L60.6905083,15.3183917 L60.6905083,84.660225 L58.1301667,83.9862333 L58.1301667,80.84335 C58.1301667,80.1300917 57.5517583,79.5516833 56.8385,79.5516833 C56.1252417,79.5516833 55.5468333,80.1300917 55.5468333,80.84335 L55.5468333,83.3063 L14.4085417,72.4790333 L14.4085417,3.1372 Z M6.6929,8.08531667 L11.8252083,8.78514167 L11.8252083,73.4749083 C11.8252083,74.0615833 12.2207167,74.5746333 12.788275,74.72395 L41.1682583,82.1934 L6.6929,77.4912167 L6.6929,8.08531667 Z M2.58333333,83.3220583 L2.58333333,19.9069083 C2.58333333,19.0236667 3.25215833,18.2943917 4.10956667,18.1967417 L4.10956667,78.6185833 C4.10956667,79.2644167 4.58670833,79.81105 5.2266,79.8983667 L42.9538583,85.0441083 L4.30564167,85.0441083 C3.35600833,85.0441083 2.58333333,84.2716917 2.58333333,83.3220583 Z M121.380758,83.3220583 C121.380758,84.2716917 120.608083,85.0443667 119.65845,85.0443667 L81.0102333,85.0443667 L118.737492,79.898625 C119.377383,79.8113083 119.854525,79.264675 119.854525,78.6188417 L119.854525,18.1964833 C120.712192,18.2941333 121.380758,19.0234083 121.380758,19.90665 L121.380758,83.3220583 L121.380758,83.3220583 Z M19.140175,12.6908833 C19.3313417,12.0034583 20.043825,11.6014917 20.7307333,11.7926583 L52.4199667,20.608025 C53.1073917,20.7991917 53.5093583,21.5114167 53.3181917,22.1985833 C53.1593167,22.7700167 52.6400667,23.1443417 52.074575,23.1443417 C51.959875,23.1443417 51.8433667,23.1291 51.7276333,23.0968083 L20.0384,14.2814417 C19.350975,14.090275 18.9490083,13.3783083 19.140175,12.6908833 Z M53.3181917,31.0180833 C53.1593167,31.5895167 52.6400667,31.9638417 52.074575,31.9638417 C51.959875,31.9638417 51.8433667,31.9486 51.7276333,31.9163083 L20.0384,23.1009417 C19.350975,22.909775 18.9490083,22.19755 19.140175,21.5103833 C19.3313417,20.8232167 20.043825,20.4209917 20.7307333,20.6121583 L52.4199667,29.427525 C53.1073917,29.6186917 53.5093583,30.3306583 53.3181917,31.0180833 Z M53.3181917,39.8370667 C53.1593167,40.4085 52.6400667,40.782825 52.074575,40.782825 C51.959875,40.782825 51.8433667,40.7675833 51.7276333,40.7352917 L20.0384,31.919925 C19.350975,31.7287583 18.9490083,31.0165333 19.140175,30.3293667 C19.3313417,29.6422 20.043825,29.2397167 20.7307333,29.4311417 L52.4199667,38.2465083 C53.1073917,38.437675 53.5093583,39.1499 53.3181917,39.8370667 Z M53.3181917,48.6563083 C53.1593167,49.2277417 52.6400667,49.6020667 52.074575,49.6020667 C51.959875,49.6020667 51.8433667,49.586825 51.7276333,49.5545333 L20.0384,40.7391667 C19.350975,40.548 18.9490083,39.835775 19.140175,39.1486083 C19.3313417,38.4614417 20.043825,38.0592167 20.7307333,38.2503833 L52.4199667,47.06575 C53.1073917,47.2569167 53.5093583,47.9691417 53.3181917,48.6563083 Z M53.3181917,57.4758083 C53.1593167,58.0472417 52.6400667,58.4215667 52.074575,58.4215667 C51.959875,58.4215667 51.8433667,58.406325 51.7276333,58.3740333 L20.0384,49.5586667 C19.350975,49.3675 18.9490083,48.655275 19.140175,47.9681083 C19.3313417,47.2806833 20.043825,46.878975 20.7307333,47.0698833 L52.4199667,55.88525 C53.1073917,56.0764167 53.5093583,56.7883833 53.3181917,57.4758083 Z M53.3181917,66.2947917 C53.1593167,66.866225 52.6400667,67.24055 52.074575,67.24055 C51.959875,67.24055 51.8433667,67.2253083 51.7276333,67.1930167 L20.0384,58.37765 C19.350975,58.1864833 18.9490083,57.4742583 19.140175,56.7870917 C19.3313417,56.099925 20.043825,55.6977 20.7307333,55.8888667 L52.4199667,64.7042333 C53.1073917,64.8954 53.5093583,65.607625 53.3181917,66.2947917 Z M69.3255583,22.1985833 C69.1343917,21.5114167 69.5363583,20.7991917 70.2237833,20.608025 L101.913017,11.7926583 C102.59915,11.60175 103.312408,12.0034583 103.503575,12.6908833 C103.694742,13.3783083 103.292775,14.090275 102.60535,14.2814417 L70.9161167,23.0968083 C70.8003833,23.1291 70.683875,23.1443417 70.569175,23.1443417 C70.0036833,23.1446 69.4846917,22.770275 69.3255583,22.1985833 Z M69.3255583,31.0180833 C69.1343917,30.3309167 69.5363583,29.6186917 70.2237833,29.427525 L101.913017,20.6121583 C102.59915,20.4215083 103.312408,20.8229583 103.503575,21.5103833 C103.694742,22.19755 103.292775,22.909775 102.60535,23.1009417 L70.9161167,31.9163083 C70.8003833,31.9486 70.683875,31.9638417 70.569175,31.9638417 C70.0036833,31.9638417 69.4846917,31.5895167 69.3255583,31.0180833 Z M69.3255583,39.8370667 C69.1343917,39.1499 69.5363583,38.437675 70.2237833,38.2465083 L101.913017,29.4311417 C102.59915,29.2402333 103.312408,29.6419417 103.503575,30.3293667 C103.694742,31.0165333 103.292775,31.7287583 102.60535,31.919925 L70.9161167,40.7352917 C70.8003833,40.7675833 70.683875,40.782825 70.569175,40.782825 C70.0036833,40.7830833 69.4846917,40.4087583 69.3255583,39.8370667 Z M69.3255583,48.6563083 C69.1343917,47.9691417 69.5363583,47.2569167 70.2237833,47.06575 L101.913017,38.2503833 C102.59915,38.0597333 103.312408,38.4611833 103.503575,39.1486083 C103.694742,39.835775 103.292775,40.548 102.60535,40.7391667 L70.9161167,49.5545333 C70.8003833,49.586825 70.683875,49.6020667 70.569175,49.6020667 C70.0036833,49.602325 69.4846917,49.228 69.3255583,48.6563083 Z M69.3255583,57.4758083 C69.1343917,56.7886417 69.5363583,56.0764167 70.2237833,55.88525 L101.913017,47.0698833 C102.59915,46.8792333 103.312408,47.2806833 103.503575,47.9681083 C103.694742,48.655275 103.292775,49.3675 102.60535,49.5586667 L70.9161167,58.3740333 C70.8003833,58.406325 70.683875,58.4215667 70.569175,58.4215667 C70.0036833,58.4215667 69.4846917,58.0472417 69.3255583,57.4758083 Z M69.3255583,66.2947917 C69.1343917,65.607625 69.5363583,64.8954 70.2237833,64.7042333 L101.913017,55.8888667 C102.59915,55.6982167 103.312408,56.0996667 103.503575,56.7870917 C103.694742,57.4742583 103.292775,58.1864833 102.60535,58.37765 L70.9161167,67.1930167 C70.8003833,67.2253083 70.683875,67.24055 70.569175,67.24055 C70.0036833,67.2408083 69.4846917,66.8664833 69.3255583,66.2947917 Z" id="Shape"></path>
                    </g>
                </g>
            </g>
        </g>
    </g>
</svg>