<?xml version="1.0" encoding="UTF-8"?>
<svg width="480px" height="340px" viewBox="0 0 480 340" version="1.1" xmlns="http://www.w3.org/2000/svg" xmlns:xlink="http://www.w3.org/1999/xlink">
    <!-- Generator: Sketch 41.2 (35397) - http://www.bohemiancoding.com/sketch -->
    <title>library</title>
    <desc>Created with Sketch.</desc>
    <defs></defs>
    <g id="Page-1" stroke="none" stroke-width="1" fill="none" fill-rule="evenodd">
        <g id="library" fill="#3488BD">
            <path d="M463.953,60.43 L463.953,25.569 C463.953,24.125 463.329,22.752 462.241,21.802 C461.153,20.852 459.71,20.419 458.277,20.614 L434.086,23.913 L434.086,5.658 C434.086,4.107 433.367,2.644 432.139,1.698 C430.911,0.751 429.312,0.428 427.814,0.823 L239.931,50.273 L52.047,0.822 C50.547,0.427 48.95,0.75 47.722,1.697 C46.494,2.643 45.775,4.106 45.775,5.657 L45.775,23.913 L21.584,20.614 C20.153,20.42 18.708,20.852 17.62,21.802 C16.532,22.751 15.908,24.125 15.908,25.569 L15.908,60.43 C7.071,60.831 0,68.125 0,77.059 L0,322.537 C0,331.727 7.477,339.204 16.667,339.204 L239.92,339.204 L239.925,339.204 L239.931,339.204 L239.937,339.204 L239.942,339.204 L463.195,339.204 C472.385,339.204 479.862,331.727 479.862,322.537 L479.862,77.059 C479.861,68.125 472.79,60.831 463.953,60.43 Z M453.953,31.298 L453.953,299.966 L320.501,318.168 L430.359,289.254 C432.556,288.676 434.087,286.69 434.087,284.419 L434.087,34.007 L453.953,31.298 Z M424.086,280.564 L244.93,327.716 L244.93,59.296 L424.086,12.144 L424.086,280.564 Z M55.775,12.144 L215.02,54.056 L215.02,282.924 C215.02,285.685 217.259,287.924 220.02,287.924 C222.781,287.924 225.02,285.685 225.02,282.924 L225.02,56.688 L234.931,59.297 L234.931,327.717 L225.02,325.108 L225.02,312.942 C225.02,310.181 222.781,307.942 220.02,307.942 C217.259,307.942 215.02,310.181 215.02,312.942 L215.02,322.476 L55.775,280.564 L55.775,12.144 Z M25.908,31.298 L45.775,34.007 L45.775,284.419 C45.775,286.69 47.306,288.676 49.503,289.254 L159.361,318.168 L25.908,299.966 L25.908,31.298 Z M10,322.537 L10,77.059 C10,73.64 12.589,70.817 15.908,70.439 L15.908,304.33 C15.908,306.83 17.755,308.946 20.232,309.284 L166.273,329.203 L16.667,329.203 C12.991,329.203 10,326.213 10,322.537 Z M469.861,322.537 C469.861,326.213 466.87,329.204 463.194,329.204 L313.588,329.204 L459.629,309.285 C462.106,308.947 463.953,306.831 463.953,304.331 L463.953,70.438 C467.273,70.816 469.861,73.639 469.861,77.058 L469.861,322.537 L469.861,322.537 Z M74.091,49.126 C74.831,46.465 77.589,44.909 80.248,45.649 L202.916,79.773 C205.577,80.513 207.133,83.27 206.393,85.93 C205.778,88.142 203.768,89.591 201.579,89.591 C201.135,89.591 200.684,89.532 200.236,89.407 L77.568,55.283 C74.907,54.543 73.351,51.787 74.091,49.126 Z M206.393,120.07 C205.778,122.282 203.768,123.731 201.579,123.731 C201.135,123.731 200.684,123.672 200.236,123.547 L77.568,89.423 C74.907,88.683 73.351,85.926 74.091,83.266 C74.831,80.606 77.589,79.049 80.248,79.789 L202.916,113.913 C205.577,114.653 207.133,117.409 206.393,120.07 Z M206.393,154.208 C205.778,156.42 203.768,157.869 201.579,157.869 C201.135,157.869 200.684,157.81 200.236,157.685 L77.568,123.561 C74.907,122.821 73.351,120.064 74.091,117.404 C74.831,114.744 77.589,113.186 80.248,113.927 L202.916,148.051 C205.577,148.791 207.133,151.548 206.393,154.208 Z M206.393,188.347 C205.778,190.559 203.768,192.008 201.579,192.008 C201.135,192.008 200.684,191.949 200.236,191.824 L77.568,157.7 C74.907,156.96 73.351,154.203 74.091,151.543 C74.831,148.883 77.589,147.326 80.248,148.066 L202.916,182.19 C205.577,182.93 207.133,185.687 206.393,188.347 Z M206.393,222.487 C205.778,224.699 203.768,226.148 201.579,226.148 C201.135,226.148 200.684,226.089 200.236,225.964 L77.568,191.84 C74.907,191.1 73.351,188.343 74.091,185.683 C74.831,183.022 77.589,181.467 80.248,182.206 L202.916,216.33 C205.577,217.07 207.133,219.826 206.393,222.487 Z M206.393,256.625 C205.778,258.837 203.768,260.286 201.579,260.286 C201.135,260.286 200.684,260.227 200.236,260.102 L77.568,225.978 C74.907,225.238 73.351,222.481 74.091,219.821 C74.831,217.161 77.589,215.604 80.248,216.344 L202.916,250.468 C205.577,251.208 207.133,253.965 206.393,256.625 Z M268.357,85.93 C267.617,83.27 269.173,80.513 271.834,79.773 L394.502,45.649 C397.158,44.91 399.919,46.465 400.659,49.126 C401.399,51.787 399.843,54.543 397.182,55.283 L274.514,89.407 C274.066,89.532 273.615,89.591 273.171,89.591 C270.982,89.592 268.973,88.143 268.357,85.93 Z M268.357,120.07 C267.617,117.41 269.173,114.653 271.834,113.913 L394.502,79.789 C397.158,79.051 399.919,80.605 400.659,83.266 C401.399,85.926 399.843,88.683 397.182,89.423 L274.514,123.547 C274.066,123.672 273.615,123.731 273.171,123.731 C270.982,123.731 268.973,122.282 268.357,120.07 Z M268.357,154.208 C267.617,151.548 269.173,148.791 271.834,148.051 L394.502,113.927 C397.158,113.188 399.919,114.743 400.659,117.404 C401.399,120.064 399.843,122.821 397.182,123.561 L274.514,157.685 C274.066,157.81 273.615,157.869 273.171,157.869 C270.982,157.87 268.973,156.421 268.357,154.208 Z M268.357,188.347 C267.617,185.687 269.173,182.93 271.834,182.19 L394.502,148.066 C397.158,147.328 399.919,148.882 400.659,151.543 C401.399,154.203 399.843,156.96 397.182,157.7 L274.514,191.824 C274.066,191.949 273.615,192.008 273.171,192.008 C270.982,192.009 268.973,190.56 268.357,188.347 Z M268.357,222.487 C267.617,219.827 269.173,217.07 271.834,216.33 L394.502,182.206 C397.158,181.468 399.919,183.022 400.659,185.683 C401.399,188.343 399.843,191.1 397.182,191.84 L274.514,225.964 C274.066,226.089 273.615,226.148 273.171,226.148 C270.982,226.148 268.973,224.699 268.357,222.487 Z M268.357,256.625 C267.617,253.965 269.173,251.208 271.834,250.468 L394.502,216.344 C397.158,215.606 399.919,217.16 400.659,219.821 C401.399,222.481 399.843,225.238 397.182,225.978 L274.514,260.102 C274.066,260.227 273.615,260.286 273.171,260.286 C270.982,260.287 268.973,258.838 268.357,256.625 Z" id="Shape"></path>
        </g>
    </g>
</svg>