<?xml version="1.0" encoding="UTF-8" standalone="no"?>
<svg width="128px" height="97px" viewBox="0 0 128 97" version="1.1" xmlns="http://www.w3.org/2000/svg" xmlns:xlink="http://www.w3.org/1999/xlink">
    <!-- Generator: Sketch 3.8.2 (29753) - http://www.bohemiancoding.com/sketch -->
    <title>Group</title>
    <desc>Created with Sketch.</desc>
    <defs></defs>
    <g id="Page-1" stroke="none" stroke-width="1" fill="none" fill-rule="evenodd">
        <g id="icon" transform="translate(-2.000000, -3.000000)">
            <g id="Group" transform="translate(2.000000, 3.000000)">
                <rect id="Rectangle-1" fill="#38385E" transform="translate(21.000000, 36.000000) rotate(-90.000000) translate(-21.000000, -36.000000) " x="11" y="16" width="20" height="40" rx="3"></rect>
                <rect id="Rectangle-1" fill="#FE446E" transform="translate(88.000000, 36.000000) rotate(-90.000000) translate(-88.000000, -36.000000) " x="78" y="-4" width="20" height="80" rx="3"></rect>
                <rect id="Rectangle-1" fill="#FE446E" transform="translate(21.000000, 87.000000) rotate(-270.000000) translate(-21.000000, -87.000000) " x="11" y="67" width="20" height="40" rx="3"></rect>
                <rect id="Rectangle-1" fill="#38385E" transform="translate(88.000000, 87.000000) rotate(-270.000000) translate(-88.000000, -87.000000) " x="78" y="47" width="20" height="80" rx="3"></rect>
                <rect id="Rectangle-1" fill="#FDC23E" transform="translate(40.614854, 10.114854) rotate(-90.000000) translate(-40.614854, -10.114854) " x="30.6148539" y="-29.8851461" width="20" height="80" rx="3"></rect>
                <rect id="Rectangle-1" fill="#3488BD" transform="translate(40.614854, 61.114854) rotate(-90.000000) translate(-40.614854, -61.114854) " x="30.6148539" y="21.1148539" width="20" height="80" rx="3"></rect>
                <rect id="Rectangle-1" fill="#3488BD" transform="translate(107.135146, 10.864854) rotate(-90.000000) translate(-107.135146, -10.864854) " x="97.1351461" y="-9.13514613" width="20" height="40" rx="3"></rect>
                <rect id="Rectangle-1" fill="#FDC23E" transform="translate(107.135146, 61.864854) rotate(-90.000000) translate(-107.135146, -61.864854) " x="97.1351461" y="41.8648539" width="20" height="40" rx="3"></rect>
            </g>
        </g>
    </g>
</svg>
