<?xml version="1.0" encoding="UTF-8" standalone="no"?>
<svg width="133px" height="103px" viewBox="0 0 133 103" version="1.1" xmlns="http://www.w3.org/2000/svg" xmlns:xlink="http://www.w3.org/1999/xlink">
    <!-- Generator: Sketch 3.8.2 (29753) - http://www.bohemiancoding.com/sketch -->
    <title>button</title>
    <desc>Created with Sketch.</desc>
    <defs>
        <rect id="path-1" x="15" y="-15" width="95" height="125" rx="3"></rect>
        <mask id="mask-2" maskContentUnits="userSpaceOnUse" maskUnits="objectBoundingBox" x="0" y="0" width="95" height="125" fill="white">
            <use xlink:href="#path-1"></use>
        </mask>
    </defs>
    <g id="Page-1" stroke="none" stroke-width="1" fill="none" fill-rule="evenodd">
        <g id="button">
            <g id="Group" transform="translate(4.000000, 4.000000)">
                <rect id="Rectangle-1" fill="#D9D9E0" transform="translate(64.500000, 15.000000) rotate(-90.000000) translate(-64.500000, -15.000000) " x="59.5" y="-27.5" width="10" height="85" rx="2"></rect>
                <rect id="Rectangle-1" fill="#D9D9E0" transform="translate(42.000000, 30.500000) rotate(-90.000000) translate(-42.000000, -30.500000) " x="37" y="11" width="10" height="39" rx="2"></rect>
                <rect id="Rectangle-1" fill="#D9D9E0" transform="translate(87.250000, 30.500000) rotate(-90.000000) translate(-87.250000, -30.500000) " x="82.25" y="10.25" width="10" height="40.5" rx="2"></rect>
                <rect id="Rectangle-1" fill="#D9D9E0" transform="translate(64.000000, 46.000000) rotate(-90.000000) translate(-64.000000, -46.000000) " x="59" y="4" width="10" height="84" rx="2"></rect>
                <rect id="Rectangle-1" fill="#D9D9E0" transform="translate(64.000000, 62.000000) rotate(-90.000000) translate(-64.000000, -62.000000) " x="59" y="20" width="10" height="84" rx="2"></rect>
                <rect id="Rectangle-1" fill="#80D3EC" transform="translate(47.000000, 81.250000) rotate(-90.000000) translate(-47.000000, -81.250000) " x="42" y="67" width="10" height="28.5" rx="2"></rect>
                <rect id="Rectangle-1" fill="#FE446E" transform="translate(81.000000, 81.250000) rotate(-90.000000) translate(-81.000000, -81.250000) " x="76" y="67" width="10" height="28.5" rx="2"></rect>
                <use id="Rectangle-1" stroke="#38385E" mask="url(#mask-2)" stroke-width="4" transform="translate(62.500000, 47.500000) rotate(-90.000000) translate(-62.500000, -47.500000) " xlink:href="#path-1"></use>
            </g>
        </g>
    </g>
</svg>