<?xml version="1.0" encoding="UTF-8" standalone="no"?>
<svg width="133px" height="103px" viewBox="0 0 133 103" version="1.1" xmlns="http://www.w3.org/2000/svg" xmlns:xlink="http://www.w3.org/1999/xlink">
    <!-- Generator: Sketch 3.8.2 (29753) - http://www.bohemiancoding.com/sketch -->
    <title>cards</title>
    <desc>Created with Sketch.</desc>
    <defs>
        <rect id="path-1" x="19" y="-11" width="95" height="125" rx="3"></rect>
        <mask id="mask-2" maskContentUnits="userSpaceOnUse" maskUnits="objectBoundingBox" x="0" y="0" width="95" height="125" fill="white">
            <use xlink:href="#path-1"></use>
        </mask>
    </defs>
    <g id="Page-1" stroke="none" stroke-width="1" fill="none" fill-rule="evenodd">
        <g id="cards">
            <use id="Rectangle-1" stroke="#38385E" mask="url(#mask-2)" stroke-width="4" transform="translate(66.500000, 51.500000) rotate(-90.000000) translate(-66.500000, -51.500000) " xlink:href="#path-1"></use>
            <g id="Group" transform="translate(24.000000, 19.000000)">
                <rect id="Rectangle-1" fill="#D9D9E0" transform="translate(20.000000, 19.500000) rotate(-90.000000) translate(-20.000000, -19.500000) " x="9.5" y="-0.5" width="21" height="40" rx="2"></rect>
                <rect id="Rectangle-1" fill="#80D3EC" transform="translate(20.000000, 4.500000) rotate(-90.000000) translate(-20.000000, -4.500000) " x="15.5" y="-15.5" width="9" height="40" rx="2"></rect>
            </g>
            <g id="Group" transform="translate(69.000000, 19.000000)">
                <rect id="Rectangle-1" fill="#D9D9E0" transform="translate(20.000000, 19.500000) rotate(-90.000000) translate(-20.000000, -19.500000) " x="9.5" y="-0.5" width="21" height="40" rx="2"></rect>
                <rect id="Rectangle-1" fill="#80D3EC" transform="translate(20.000000, 4.500000) rotate(-90.000000) translate(-20.000000, -4.500000) " x="15.5" y="-15.5" width="9" height="40" rx="2"></rect>
            </g>
            <g id="Group" transform="translate(24.000000, 54.000000)">
                <rect id="Rectangle-1" fill="#D9D9E0" transform="translate(20.000000, 19.500000) rotate(-90.000000) translate(-20.000000, -19.500000) " x="9.5" y="-0.5" width="21" height="40" rx="2"></rect>
                <rect id="Rectangle-1" fill="#80D3EC" transform="translate(20.000000, 4.500000) rotate(-90.000000) translate(-20.000000, -4.500000) " x="15.5" y="-15.5" width="9" height="40" rx="2"></rect>
            </g>
            <g id="Group" transform="translate(69.000000, 54.000000)">
                <rect id="Rectangle-1" fill="#D9D9E0" transform="translate(20.000000, 19.500000) rotate(-90.000000) translate(-20.000000, -19.500000) " x="9.5" y="-0.5" width="21" height="40" rx="2"></rect>
                <rect id="Rectangle-1" fill="#80D3EC" transform="translate(20.000000, 4.500000) rotate(-90.000000) translate(-20.000000, -4.500000) " x="15.5" y="-15.5" width="9" height="40" rx="2"></rect>
            </g>
        </g>
    </g>
</svg>