<?xml version="1.0" encoding="UTF-8" standalone="no"?>
<svg width="133px" height="103px" viewBox="0 0 133 103" version="1.1" xmlns="http://www.w3.org/2000/svg" xmlns:xlink="http://www.w3.org/1999/xlink">
    <!-- Generator: Sketch 3.8.2 (29753) - http://www.bohemiancoding.com/sketch -->
    <title>grid</title>
    <desc>Created with Sketch.</desc>
    <defs>
        <rect id="path-1" x="15" y="-15" width="95" height="125" rx="3"></rect>
        <mask id="mask-2" maskContentUnits="userSpaceOnUse" maskUnits="objectBoundingBox" x="0" y="0" width="95" height="125" fill="white">
            <use xlink:href="#path-1"></use>
        </mask>
    </defs>
    <g id="Page-1" stroke="none" stroke-width="1" fill="none" fill-rule="evenodd">
        <g id="grid">
            <g id="Group" transform="translate(4.000000, 4.000000)">
                <use id="Rectangle-1" stroke="#38385E" mask="url(#mask-2)" stroke-width="4" transform="translate(62.500000, 47.500000) rotate(-90.000000) translate(-62.500000, -47.500000) " xlink:href="#path-1"></use>
                <rect id="Rectangle-1" fill="#80D3EC" transform="translate(63.000000, 16.500000) rotate(-90.000000) translate(-63.000000, -16.500000) " x="55.5" y="-26" width="15" height="85" rx="2"></rect>
                <rect id="Rectangle-1" fill="#80D3EC" transform="translate(40.500000, 37.500000) rotate(-90.000000) translate(-40.500000, -37.500000) " x="33" y="17.5" width="15" height="40" rx="2"></rect>
                <rect id="Rectangle-1" fill="#80D3EC" transform="translate(44.000000, 78.500000) rotate(-90.000000) translate(-44.000000, -78.500000) " x="36.5" y="55" width="15" height="47" rx="2"></rect>
                <rect id="Rectangle-1" fill="#80D3EC" transform="translate(32.500000, 57.500000) rotate(-90.000000) translate(-32.500000, -57.500000) " x="25" y="45.5" width="15" height="24" rx="2"></rect>
                <rect id="Rectangle-1" fill="#80D3EC" transform="translate(62.500000, 57.500000) rotate(-90.000000) translate(-62.500000, -57.500000) " x="55" y="45.5" width="15" height="24" rx="2"></rect>
                <rect id="Rectangle-1" fill="#80D3EC" transform="translate(87.500000, 78.500000) rotate(-90.000000) translate(-87.500000, -78.500000) " x="80" y="62.5" width="15" height="32" rx="2"></rect>
                <rect id="Rectangle-1" fill="#80D3EC" transform="translate(92.500000, 57.500000) rotate(-90.000000) translate(-92.500000, -57.500000) " x="85" y="45.5" width="15" height="24" rx="2"></rect>
                <rect id="Rectangle-1" fill="#80D3EC" transform="translate(85.500000, 37.500000) rotate(-90.000000) translate(-85.500000, -37.500000) " x="78" y="17.5" width="15" height="40" rx="2"></rect>
            </g>
        </g>
    </g>
</svg>