<?xml version="1.0" encoding="UTF-8"?>
<svg width="124px" height="125px" viewBox="0 0 124 125" version="1.1" xmlns="http://www.w3.org/2000/svg" xmlns:xlink="http://www.w3.org/1999/xlink">
    <!-- Generator: Sketch 41.2 (35397) - http://www.bohemiancoding.com/sketch -->
    <title>mural</title>
    <desc>Created with Sketch.</desc>
    <defs></defs>
    <g id="Page-1" stroke="none" stroke-width="1" fill="none" fill-rule="evenodd">
        <g id="mural">
            <g id="Capa_1">
                <path d="M124,4.32368421 C124,2.28421053 122.368421,0.652631579 120.328947,0.652631579 L3.91578947,0.652631579 C1.87631579,0.652631579 0.244736842,2.28421053 0.244736842,4.32368421 L0.244736842,120.818421 C0.244736842,122.857895 1.87631579,124.489474 3.91578947,124.489474 L90.6342105,124.489474 L124,91.1236842 L124,4.32368421 Z" id="Shape" fill="#FF0061"></path>
                <polygon id="Shape" fill="#000000" opacity="0.3" points="91.6131579 92.2657895 59.4710526 124.407895 90.6342105 124.407895 123.918421 91.1236842"></polygon>
                <path d="M124,91.0421053 L94.3052632,91.0421053 C92.2657895,91.0421053 90.6342105,92.6736842 90.6342105,94.7131579 L90.6342105,124.407895 L124,91.0421053 Z" id="Shape" fill="#FF5BA0"></path>
                <path d="M86.4736842,44.2973684 L86.4736842,81.5789474 C86.4736842,82.3131579 85.9026316,82.8842105 85.1684211,82.8842105 L75.4605263,82.8842105 C74.7263158,82.8842105 74.1552632,82.3131579 74.1552632,81.5789474 L74.1552632,62.9789474 C70.1578947,68.4447368 66.2421053,73.8289474 62.1631579,79.3763158 C61.3473684,78.3157895 50.4973684,63.0605263 49.9263158,62.0815789 C49.9263158,62.8157895 49.9263158,77.0921053 49.8447368,81.5789474 C49.8447368,82.3131579 49.2736842,82.8842105 48.5394737,82.8842105 L39.1578947,82.8842105 C38.4236842,82.8842105 37.8526316,82.3131579 37.8526316,81.5789474 L37.8526316,44.2157895 C37.8526316,43.4815789 38.4236842,42.9105263 39.1578947,42.9105263 L47.7236842,42.9105263 C48.1315789,42.9105263 48.5394737,43.1552632 48.7842105,43.4815789 L62,61.6736842 L75.3789474,43.4815789 C75.6236842,43.1552632 76.0315789,42.9105263 76.4394737,42.9105263 L85.0868421,42.9105263 C85.9026316,42.9921053 86.4736842,43.5631579 86.4736842,44.2973684 Z" id="Shape" fill="#FFFFFF"></path>
            </g>
        </g>
    </g>
</svg>