<?xml version="1.0" encoding="utf-8"?>
<!-- Generator: Adobe Illustrator 18.0.0, SVG Export Plug-In . SVG Version: 6.00 Build 0)  -->
<!DOCTYPE svg PUBLIC "-//W3C//DTD SVG 1.1//EN" "http://www.w3.org/Graphics/SVG/1.1/DTD/svg11.dtd">
<svg version="1.1" id="Capa_1" xmlns="http://www.w3.org/2000/svg" xmlns:xlink="http://www.w3.org/1999/xlink" x="0px" y="0px"
	 viewBox="0 0 294 286" enable-background="new 0 0 294 286" xml:space="preserve">
<path fill="#FF0061" d="M223,71.3c0-2.5-2-4.5-4.5-4.5H75.8c-2.5,0-4.5,2-4.5,4.5v142.8c0,2.5,2,4.5,4.5,4.5h106.3l40.9-40.9V71.3z"
	/>
<polygon opacity="0.3" points="183.3,179.1 143.9,218.5 182.1,218.5 222.9,177.7 "/>
<path fill="#FF5BA0" d="M223,177.6h-36.4c-2.5,0-4.5,2-4.5,4.5v36.4L223,177.6z"/>
<path fill="#FFFFFF" d="M177,120.3l0,45.7c0,0.9-0.7,1.6-1.6,1.6h-11.9c-0.9,0-1.6-0.7-1.6-1.6c0-5.4,0-22.1,0-22.8
	c-4.9,6.7-9.7,13.3-14.7,20.1c-1-1.3-14.3-20-15-21.2c0,0.9,0,18.4-0.1,23.9c0,0.9-0.7,1.6-1.6,1.6H119c-0.9,0-1.6-0.7-1.6-1.6
	l0-45.8c0-0.9,0.7-1.6,1.6-1.6l10.5,0c0.5,0,1,0.3,1.3,0.7l16.2,22.3l16.4-22.3c0.3-0.4,0.8-0.7,1.3-0.7h10.6
	C176.3,118.7,177,119.4,177,120.3z"/>
</svg>
