<?xml version="1.0" encoding="UTF-8"?>
<svg width="124px" height="124px" viewBox="0 0 124 124" version="1.1" xmlns="http://www.w3.org/2000/svg" xmlns:xlink="http://www.w3.org/1999/xlink">
    <!-- Generator: Sketch 41.2 (35397) - http://www.bohemiancoding.com/sketch -->
    <title>slack</title>
    <desc>Created with Sketch.</desc>
    <defs></defs>
    <g id="Page-1" stroke="none" stroke-width="1" fill="none" fill-rule="evenodd">
        <g id="slack">
            <g id="Layer_1">
                <g id="Group">
                    <path d="M79.9447154,8.16585366 C78.0292683,2.4195122 71.8796748,-0.705691057 66.1333333,1.10894309 C60.3869919,3.02439024 57.2617886,9.17398374 59.0764228,14.9203252 L87.404878,102.022764 C89.3203252,107.365854 95.1674797,110.390244 100.712195,108.777236 C106.55935,107.063415 110.087805,100.913821 108.172358,95.2682927 C108.172358,95.0666667 79.9447154,8.16585366 79.9447154,8.16585366 Z" id="Shape" fill="#ECB32D"></path>
                    <path d="M36.0910569,22.3804878 C34.1756098,16.6341463 28.0260163,13.5089431 22.2796748,15.3235772 C16.5333333,17.2390244 13.4081301,23.3886179 15.2227642,29.1349593 L43.5512195,116.237398 C45.4666667,121.580488 51.3138211,124.604878 56.8585366,122.99187 C62.7056911,121.278049 66.2341463,115.128455 64.3186992,109.482927 C64.3186992,109.281301 36.0910569,22.3804878 36.0910569,22.3804878 Z" id="Shape" fill="#63C1A0"></path>
                    <path d="M115.63252,80.2471545 C121.378862,78.3317073 124.504065,72.1821138 122.689431,66.4357724 C120.773984,60.6894309 114.62439,57.5642276 108.878049,59.3788618 L21.6747967,87.8081301 C16.3317073,89.7235772 13.3073171,95.5707317 14.9203252,101.115447 C16.6341463,106.962602 22.7837398,110.491057 28.4292683,108.57561 C28.6308943,108.57561 115.63252,80.2471545 115.63252,80.2471545 Z" id="Shape" fill="#E01A59"></path>
                    <path d="M39.8211382,104.946341 C45.4666667,103.131707 52.8260163,100.712195 60.6894309,98.1918699 C58.8747967,92.5463415 56.4552846,85.1869919 53.9349593,77.3235772 L33.0666667,84.0780488 L39.8211382,104.946341 Z" id="Shape" fill="#331433"></path>
                    <path d="M83.7756098,90.6308943 C91.6390244,88.1105691 98.998374,85.6910569 104.643902,83.8764228 C102.829268,78.2308943 100.409756,70.8715447 97.8894309,63.0081301 L77.0211382,69.7626016 L83.7756098,90.6308943 Z" id="Shape" fill="#D62027"></path>
                    <path d="M101.317073,36.3934959 C107.063415,34.4780488 110.188618,28.3284553 108.373984,22.5821138 C106.458537,16.8357724 100.308943,13.7105691 94.5626016,15.5252033 L7.4601626,43.8536585 C2.11707317,45.7691057 -0.907317073,51.6162602 0.705691057,57.1609756 C2.4195122,63.0081301 8.56910569,66.5365854 14.2146341,64.6211382 C14.4162602,64.6211382 101.317073,36.3934959 101.317073,36.3934959 Z" id="Shape" fill="#89D3DF"></path>
                    <path d="M25.6065041,60.9918699 C31.2520325,59.1772358 38.6113821,56.7577236 46.4747967,54.2373984 C43.9544715,46.3739837 41.5349593,39.0146341 39.7203252,33.3691057 L18.8520325,40.1235772 L25.6065041,60.9918699 Z" id="Shape" fill="#258B74"></path>
                    <path d="M69.4601626,46.7772358 C77.3235772,44.2569106 84.6829268,41.8373984 90.3284553,40.0227642 C87.8081301,32.1593496 85.3886179,24.8 83.5739837,19.1544715 L62.7056911,25.9089431 L69.4601626,46.7772358 Z" id="Shape" fill="#819C3C"></path>
                </g>
            </g>
        </g>
    </g>
</svg>